<?xml version="1.0" encoding="UTF-8"?>
<!DOCTYPE svg PUBLIC "-//W3C//DTD SVG 1.1//EN" "http://www.w3.org/Graphics/SVG/1.1/DTD/svg11.dtd">
<svg version="1.2" width="157.48mm" height="69.86mm" viewBox="2143 11159 15748 6986" preserveAspectRatio="xMidYMid" fill-rule="evenodd" stroke-width="28.222" stroke-linejoin="round" xmlns="http://www.w3.org/2000/svg" xmlns:ooo="http://xml.openoffice.org/svg/export" xmlns:xlink="http://www.w3.org/1999/xlink" xmlns:presentation="http://sun.com/xmlns/staroffice/presentation" xmlns:smil="http://www.w3.org/2001/SMIL20/" xmlns:anim="urn:oasis:names:tc:opendocument:xmlns:animation:1.0" xml:space="preserve">
 <defs class="ClipPathGroup">
  <clipPath id="presentation_clip_path" clipPathUnits="userSpaceOnUse">
   <rect x="2143" y="11159" width="15748" height="6986"/>
  </clipPath>
  <clipPath id="presentation_clip_path_shrink" clipPathUnits="userSpaceOnUse">
   <rect x="2158" y="11165" width="15717" height="6973"/>
  </clipPath>
 </defs>
 <defs class="TextShapeIndex">
  <g ooo:slide="id1" ooo:id-list="id3"/>
 </defs>
 <defs class="EmbeddedBulletChars">
  <g id="bullet-char-template-57356" transform="scale(0.00048828125,-0.00048828125)">
   <path d="M 580,1141 L 1163,571 580,0 -4,571 580,1141 Z"/>
  </g>
  <g id="bullet-char-template-57354" transform="scale(0.00048828125,-0.00048828125)">
   <path d="M 8,1128 L 1137,1128 1137,0 8,0 8,1128 Z"/>
  </g>
  <g id="bullet-char-template-10146" transform="scale(0.00048828125,-0.00048828125)">
   <path d="M 174,0 L 602,739 174,1481 1456,739 174,0 Z M 1358,739 L 309,1346 659,739 1358,739 Z"/>
  </g>
  <g id="bullet-char-template-10132" transform="scale(0.00048828125,-0.00048828125)">
   <path d="M 2015,739 L 1276,0 717,0 1260,543 174,543 174,936 1260,936 717,1481 1274,1481 2015,739 Z"/>
  </g>
  <g id="bullet-char-template-10007" transform="scale(0.00048828125,-0.00048828125)">
   <path d="M 0,-2 C -7,14 -16,27 -25,37 L 356,567 C 262,823 215,952 215,954 215,979 228,992 255,992 264,992 276,990 289,987 310,991 331,999 354,1012 L 381,999 492,748 772,1049 836,1024 860,1049 C 881,1039 901,1025 922,1006 886,937 835,863 770,784 769,783 710,716 594,584 L 774,223 C 774,196 753,168 711,139 L 727,119 C 717,90 699,76 672,76 641,76 570,178 457,381 L 164,-76 C 142,-110 111,-127 72,-127 30,-127 9,-110 8,-76 1,-67 -2,-52 -2,-32 -2,-23 -1,-13 0,-2 Z"/>
  </g>
  <g id="bullet-char-template-10004" transform="scale(0.00048828125,-0.00048828125)">
   <path d="M 285,-33 C 182,-33 111,30 74,156 52,228 41,333 41,471 41,549 55,616 82,672 116,743 169,778 240,778 293,778 328,747 346,684 L 369,508 C 377,444 397,411 428,410 L 1163,1116 C 1174,1127 1196,1133 1229,1133 1271,1133 1292,1118 1292,1087 L 1292,965 C 1292,929 1282,901 1262,881 L 442,47 C 390,-6 338,-33 285,-33 Z"/>
  </g>
  <g id="bullet-char-template-9679" transform="scale(0.00048828125,-0.00048828125)">
   <path d="M 813,0 C 632,0 489,54 383,161 276,268 223,411 223,592 223,773 276,916 383,1023 489,1130 632,1184 813,1184 992,1184 1136,1130 1245,1023 1353,916 1407,772 1407,592 1407,412 1353,268 1245,161 1136,54 992,0 813,0 Z"/>
  </g>
  <g id="bullet-char-template-8226" transform="scale(0.00048828125,-0.00048828125)">
   <path d="M 346,457 C 273,457 209,483 155,535 101,586 74,649 74,723 74,796 101,859 155,911 209,963 273,989 346,989 419,989 480,963 531,910 582,859 608,796 608,723 608,648 583,586 532,535 482,483 420,457 346,457 Z"/>
  </g>
  <g id="bullet-char-template-8211" transform="scale(0.00048828125,-0.00048828125)">
   <path d="M -4,459 L 1135,459 1135,606 -4,606 -4,459 Z"/>
  </g>
  <g id="bullet-char-template-61548" transform="scale(0.00048828125,-0.00048828125)">
   <path d="M 173,740 C 173,903 231,1043 346,1159 462,1274 601,1332 765,1332 928,1332 1067,1274 1183,1159 1299,1043 1357,903 1357,740 1357,577 1299,437 1183,322 1067,206 928,148 765,148 601,148 462,206 346,322 231,437 173,577 173,740 Z"/>
  </g>
 </defs>
 <defs class="TextEmbeddedBitmaps"/>
 <g class="SlideGroup">
  <g>
   <g id="container-id1">
    <g id="id1" class="Slide" clip-path="url(#presentation_clip_path)">
     <g class="Page">
      <g class="com.sun.star.drawing.ClosedBezierShape">
       <g id="id3">
        <rect class="BoundingBox" stroke="none" fill="none" x="2143" y="11159" width="15749" height="6987"/>
        <path fill="rgb(255,217,0)" stroke="none" d="M 14188,17024 C 13996,17100 13791,17152 13573,17182 L 13573,17213 14007,17213 C 14399,17213 14756,17150 15077,17024 15399,16899 15673,16724 15902,16499 16130,16274 16307,16008 16432,15700 16558,15393 16621,15057 16621,14693 16621,14331 16558,13996 16432,13688 16307,13381 16130,13115 15902,12892 15673,12668 15399,12493 15077,12366 14756,12239 14399,12176 14007,12176 L 13573,12176 13573,12207 C 13791,12237 13996,12290 14188,12366 14510,12493 14784,12668 15013,12892 15241,13115 15418,13381 15543,13688 15669,13996 15732,14331 15732,14693 15732,15057 15669,15393 15543,15700 15418,16008 15241,16274 15013,16499 14784,16724 14510,16899 14188,17024 Z M 12410,17024 C 12218,17100 12013,17152 11795,17182 L 11795,17213 12229,17213 C 12621,17213 12978,17150 13299,17024 13621,16899 13895,16724 14124,16499 14352,16274 14529,16008 14654,15700 14780,15393 14843,15057 14843,14693 14843,14331 14780,13996 14654,13688 14529,13381 14352,13115 14124,12892 13895,12668 13621,12493 13299,12366 12978,12239 12621,12176 12229,12176 L 11795,12176 11795,12207 C 12013,12237 12218,12290 12410,12366 12732,12493 13006,12668 13235,12892 13463,13115 13640,13381 13765,13688 13891,13996 13954,14331 13954,14693 13954,15057 13891,15393 13765,15700 13640,16008 13463,16274 13235,16499 13006,16724 12732,16899 12410,17024 Z M 8366,17220 L 8366,12176 6842,12176 3286,17256 4326,17256 4361,17254 4395,17251 4428,17245 4459,17236 4489,17225 4517,17212 4544,17196 4569,17178 4593,17158 4615,17138 4635,17117 4653,17095 4669,17073 4683,17050 5318,16113 7350,16113 7333,16928 7341,16993 7355,17019 7370,17044 7387,17067 7406,17089 7426,17110 7447,17129 7470,17148 7494,17164 7520,17179 7548,17191 7578,17201 7609,17209 7643,17214 7678,17217 7715,17219 8366,17220 Z M 5826,15351 L 7350,13192 7350,13573 7350,13954 7350,15351 5826,15351 Z M 13127,14700 L 13124,14565 13115,14433 13101,14304 13080,14177 13054,14053 13021,13931 12983,13812 12939,13695 12889,13582 12835,13473 12776,13367 12712,13265 12643,13168 12570,13074 12491,12984 12408,12899 12320,12817 12228,12740 12132,12668 12031,12600 11926,12536 11816,12477 11702,12423 11584,12373 11461,12329 11336,12290 11207,12257 11075,12231 10940,12210 10801,12195 10659,12186 10514,12183 8557,12183 8557,17220 10514,17220 10659,17217 10801,17208 10940,17193 11075,17173 11207,17146 11336,17114 11461,17076 11584,17031 11702,16982 11816,16928 11926,16869 12031,16806 12132,16738 12228,16665 12320,16588 12408,16506 12491,16420 12570,16330 12643,16236 12712,16138 12776,16036 12835,15930 12889,15821 12939,15707 12983,15591 13021,15471 13054,15349 13080,15225 13101,15097 13115,14967 13124,14835 13127,14700 Z M 11931,14700 L 11930,14793 11925,14883 11917,14972 11907,15057 11893,15141 11877,15222 11857,15301 11834,15377 11809,15451 11781,15522 11750,15590 11716,15655 11680,15717 11641,15777 11600,15833 11556,15887 11509,15938 11460,15986 11408,16030 11354,16072 11297,16111 11238,16146 11176,16179 11112,16209 11045,16235 10976,16258 10904,16277 10831,16293 10755,16305 10677,16314 10596,16319 10514,16321 9732,16321 9732,13082 10514,13082 10596,13084 10677,13089 10755,13098 10831,13110 10904,13126 10976,13145 11045,13168 11112,13194 11176,13224 11238,13256 11297,13292 11354,13331 11408,13372 11460,13417 11509,13465 11556,13516 11600,13569 11641,13626 11680,13685 11716,13748 11750,13813 11781,13881 11809,13952 11834,14026 11857,14102 11877,14180 11893,14261 11907,14344 11917,14430 11925,14518 11930,14607 11931,14700 Z M 3307,11159 L 16727,11159 C 17309,11159 17891,11741 17891,12323 L 17891,16980 C 17891,17562 17309,18145 16727,18145 L 3307,18145 C 2725,18145 2143,17562 2143,16980 L 2143,12323 C 2143,11741 2725,11159 3307,11159 Z"/>
       </g>
      </g>
     </g>
    </g>
   </g>
  </g>
 </g>
</svg>